{
  "accessors": [
    {
      "bufferView": 2,
      "componentType": 5126,
      "count": 1337,
      "max": [
        0.959958016872406,
        0.22984200716018677,
        0.12303099781274796
      ],
      "min": [
        0.19919200241565704,
        -0.22057299315929413,
        -0.23836499452590942
      ],
      "type": "VEC3"
    },
    {
      "bufferView": 2,
      "byteOffset": 16044,
      "componentType": 5126,
      "count": 1337,
      "max": [
        0.9998076558113098,
        0.9994788765907288,
        0.99942547082901
      ],
      "min": [
        -0.9959277510643005,
        -0.9994038939476013,
        -0.9997981190681458
      ],
      "type": "VEC3"
    },
    {
      "bufferView": 3,
      "componentType": 5126,
      "count": 1337,
      "max": [
        0.9996718764305115,
        0.9963127374649048,
        0.9743521809577942,
        1.0
      ],
      "min": [
        -0.9805277585983276,
        -0.8879985809326172,
        -0.9999929666519165,
        1.0
      ],
      "type": "VEC4"
    },
    {
      "bufferView": 1,
      "componentType": 5126,
      "count": 1337,
      "max": [
        0.9967280030250549,
        0.9970290064811707
      ],
      "min": [
        0.004883000161498785,
        0.002455000067129731
      ],
      "type": "VEC2"
    },
    {
      "bufferView": 0,
      "componentType": 5125,
      "count": 5748,
      "type": "SCALAR"
    },
    {
      "bufferView": 2,
      "byteOffset": 32088,
      "componentType": 5126,
      "count": 1224,
      "max": [
        1.0,
        -0.19373400509357452,
        0.4222869873046875
      ],
      "min": [
        -1.0,
        -0.22984200716018677,
        -0.4222869873046875
      ],
      "type": "VEC3"
    },
    {
      "bufferView": 2,
      "byteOffset": 46776,
      "componentType": 5126,
      "count": 1224,
      "max": [
        1.0,
        1.0,
        1.0
      ],
      "min": [
        -1.0,
        -1.0,
        -1.0
      ],
      "type": "VEC3"
    },
    {
      "bufferView": 1,
      "byteOffset": 10696,
      "componentType": 5126,
      "count": 1224,
      "max": [
        0.9692130088806152,
        0.9921879768371582
      ],
      "min": [
        0.03315199911594391,
        0.007853000424802303
      ],
      "type": "VEC2"
    },
    {
      "bufferView": 0,
      "byteOffset": 22992,
      "componentType": 5125,
      "count": 1836,
      "type": "SCALAR"
    }
  ],
  "asset": {
    "extras": {
      "author": "Scott VanArsdale (https://sketchfab.com/vanart)",
      "license": "CC-BY-4.0 (http://creativecommons.org/licenses/by/4.0/)",
      "source": "https://sketchfab.com/3d-models/led-character-c40053b034a74789892d1fdfc7764fe7",
      "title": "LED Character"
    },
    "generator": "Sketchfab-12.66.0",
    "version": "2.0"
  },
  "bufferViews": [
    {
      "buffer": 0,
      "byteLength": 30336,
      "name": "floatBufferViews",
      "target": 34963
    },
    {
      "buffer": 0,
      "byteLength": 20488,
      "byteOffset": 30336,
      "byteStride": 8,
      "name": "floatBufferViews",
      "target": 34962
    },
    {
      "buffer": 0,
      "byteLength": 61464,
      "byteOffset": 50824,
      "byteStride": 12,
      "name": "floatBufferViews",
      "target": 34962
    },
    {
      "buffer": 0,
      "byteLength": 21392,
      "byteOffset": 112288,
      "byteStride": 16,
      "name": "floatBufferViews",
      "target": 34962
    }
  ],
  "buffers": [
    {
      "byteLength": 133680,
      "uri": "scene.bin"
    }
  ],
  "extensionsUsed": [
    "KHR_materials_transmission"
  ],
  "images": [
    {
      "uri": "textures/phong4SG_baseColor.jpeg"
    },
    {
      "uri": "textures/phong4SG_metallicRoughness.png"
    },
    {
      "uri": "textures/phong4SG_emissive.jpeg"
    },
    {
      "uri": "textures/phong3SG_baseColor.png"
    },
    {
      "uri": "textures/phong3SG_metallicRoughness.png"
    },
    {
      "uri": "textures/phong3SG_emissive.jpeg"
    },
    {
      "uri": "textures/phong3SG_normal.png"
    },
    {
      "uri": "textures/phong3SG_transmission.png"
    }
  ],
  "materials": [
    {
      "doubleSided": true,
      "emissiveFactor": [
        1.0,
        1.0,
        1.0
      ],
      "emissiveTexture": {
        "index": 2
      },
      "name": "phong4SG",
      "pbrMetallicRoughness": {
        "baseColorTexture": {
          "index": 0
        },
        "metallicRoughnessTexture": {
          "index": 1
        }
      }
    },
    {
      "alphaMode": "BLEND",
      "doubleSided": true,
      "emissiveFactor": [
        1.0,
        1.0,
        1.0
      ],
      "emissiveTexture": {
        "index": 5
      },
      "extensions": {
        "KHR_materials_transmission": {
          "transmissionFactor": 1.0,
          "transmissionTexture": {
            "index": 7
          }
        }
      },
      "name": "phong3SG",
      "normalTexture": {
        "index": 6
      },
      "pbrMetallicRoughness": {
        "baseColorTexture": {
          "index": 3
        },
        "metallicRoughnessTexture": {
          "index": 4
        }
      }
    }
  ],
  "meshes": [
    {
      "name": "defaultMaterial",
      "primitives": [
        {
          "attributes": {
            "NORMAL": 1,
            "POSITION": 0,
            "TANGENT": 2,
            "TEXCOORD_0": 3
          },
          "indices": 4,
          "material": 1,
          "mode": 4
        }
      ]
    },
    {
      "name": "defaultMaterial",
      "primitives": [
        {
          "attributes": {
            "NORMAL": 6,
            "POSITION": 5,
            "TEXCOORD_0": 7
          },
          "indices": 8,
          "material": 0,
          "mode": 4
        }
      ]
    }
  ],
  "nodes": [
    {
      "children": [
        1
      ],
      "matrix": [
        1.0,
        0.0,
        0.0,
        0.0,
        0.0,
        2.220446049250313e-16,
        -1.0,
        0.0,
        0.0,
        1.0,
        2.220446049250313e-16,
        0.0,
        0.0,
        0.0,
        0.0,
        1.0
      ],
      "name": "Sketchfab_model"
    },
    {
      "children": [
        2,
        4
      ],
      "matrix": [
        1.0,
        0.0,
        0.0,
        0.0,
        0.0,
        -4.371139006309477e-08,
        0.999999999999999,
        0.0,
        0.0,
        -0.999999999999999,
        -4.371139006309477e-08,
        0.0,
        0.0,
        0.0,
        0.0,
        1.0
      ],
      "name": "Collada visual scene group"
    },
    {
      "children": [
        3
      ],
      "name": "g"
    },
    {
      "mesh": 0,
      "name": "defaultMaterial"
    },
    {
      "children": [
        5
      ],
      "name": "g"
    },
    {
      "mesh": 1,
      "name": "defaultMaterial"
    }
  ],
  "samplers": [
    {
      "magFilter": 9729,
      "minFilter": 9987,
      "wrapS": 10497,
      "wrapT": 10497
    }
  ],
  "scene": 0,
  "scenes": [
    {
      "name": "Sketchfab_Scene",
      "nodes": [
        0
      ]
    }
  ],
  "textures": [
    {
      "sampler": 0,
      "source": 0
    },
    {
      "sampler": 0,
      "source": 1
    },
    {
      "sampler": 0,
      "source": 2
    },
    {
      "sampler": 0,
      "source": 3
    },
    {
      "sampler": 0,
      "source": 4
    },
    {
      "sampler": 0,
      "source": 5
    },
    {
      "sampler": 0,
      "source": 6
    },
    {
      "sampler": 0,
      "source": 7
    }
  ]
}
